<svg width="100" height="29" viewBox="0 0 100 29" fill="none" xmlns="http://www.w3.org/2000/svg">
<g clip-path="url(#clip0_17_388)">
<path d="M31.4491 9.91839C30.2509 6.49338 26.9265 4.13364 23.2157 4.13364C20.046 4.13364 17.0698 5.8844 15.5622 8.58632H15.5237C15.0985 8.51013 14.6733 8.47217 14.2481 8.47217C11.8128 8.47217 9.5708 9.76605 8.33401 11.8213C6.28534 11.8975 4.58456 13.3055 4.12078 15.2084C1.87884 15.4367 0.139404 17.2633 0.139404 19.5469C0.139404 21.9445 2.11069 23.8854 4.54597 23.8854H29.6325C33.6139 23.8854 36.8608 20.6887 36.8608 16.7687C36.8605 13.5337 34.6186 10.7177 31.4491 9.91841L31.4491 9.91839ZM29.6323 22.0967H23.2931C24.2208 21.1073 24.8006 19.7752 24.8006 18.291C24.8006 15.7411 23.0997 13.5718 20.6259 12.8868C20.0074 11.2505 18.8092 9.95638 17.3017 9.19531C18.5387 7.17828 20.7804 5.92239 23.1772 5.92239C26.2696 5.92239 29.0139 7.97734 29.8257 10.9078C29.903 11.2503 30.2123 11.5168 30.5602 11.5547C33.15 12.0114 35.0052 14.1808 35.0052 16.7685C35.0438 19.7372 32.6085 22.0966 29.6323 22.0966V22.0967ZM4.54581 17.0351H4.81652C5.08723 17.073 5.3191 16.9971 5.51215 16.8068C5.70548 16.6547 5.82142 16.4261 5.82142 16.1598C5.8988 14.7136 7.09701 13.61 8.52714 13.61H8.79785C9.1845 13.648 9.53235 13.4579 9.72562 13.0772C10.5375 11.3647 12.3154 10.2229 14.2481 10.2229C16.4901 10.2229 18.4614 11.7072 19.0799 13.8383C19.1573 14.1807 19.4666 14.4473 19.8144 14.4852C21.6697 14.7897 23.0227 16.3881 23.0227 18.2148C23.0227 20.308 21.2833 22.0205 19.1573 22.0205H4.58469C3.15456 22.0205 1.99486 20.8787 1.99486 19.4707C1.95604 18.1768 3.11569 17.035 4.54583 17.035L4.54581 17.0351Z" fill="black"/>
</g>
<path d="M47.4399 17.54V15.56H51.9799V17.54H47.4399Z" fill="black"/>
<path d="M53.9706 22V21H55.2506C55.4772 21 55.6706 20.9667 55.8306 20.9C55.9906 20.82 56.1172 20.6867 56.2106 20.5C56.3039 20.3 56.3506 20.02 56.3506 19.66V9.60001C56.0706 9.98667 55.7972 10.3267 55.5306 10.62C55.2772 10.9133 55.0306 11.14 54.7906 11.3C54.5639 11.46 54.3306 11.54 54.0906 11.54C53.8239 11.54 53.5906 11.4133 53.3906 11.16C53.1906 10.9067 53.0906 10.5667 53.0906 10.14C53.3172 10.0733 53.5639 9.98667 53.8306 9.88C54.0972 9.76 54.3906 9.60667 54.7106 9.42C55.0439 9.22 55.3972 8.96 55.7706 8.64L56.9906 7.64H58.9906V19.66C58.9906 19.9667 59.0306 20.22 59.1106 20.42C59.1906 20.62 59.3106 20.7667 59.4706 20.86C59.6306 20.9533 59.8372 21 60.0906 21H61.1906V22H53.9706Z" fill="black"/>
<path d="M65.5967 13.46C64.77 13.46 64.1167 13.18 63.6367 12.62C63.17 12.0467 62.9367 11.3133 62.9367 10.42C62.9367 9.82 63.0433 9.29334 63.2567 8.84C63.4833 8.38667 63.79 8.03334 64.1767 7.78C64.5767 7.51334 65.05 7.38 65.5967 7.38C66.1433 7.38 66.6167 7.51334 67.0167 7.78C67.4167 8.03334 67.7233 8.38667 67.9367 8.84C68.1633 9.29334 68.2767 9.82 68.2767 10.42C68.2767 11.0067 68.1633 11.5333 67.9367 12C67.7233 12.4533 67.4167 12.8133 67.0167 13.08C66.6167 13.3333 66.1433 13.46 65.5967 13.46ZM65.6167 12.4C66.11 12.4 66.4833 12.2133 66.7367 11.84C67.0033 11.4667 67.1367 10.98 67.1367 10.38C67.1367 9.79334 67.0033 9.32 66.7367 8.96C66.47 8.6 66.0967 8.42 65.6167 8.42C65.1367 8.42 64.7567 8.6 64.4767 8.96C64.21 9.32 64.0767 9.8 64.0767 10.4C64.0767 10.9733 64.21 11.4533 64.4767 11.84C64.7567 12.2133 65.1367 12.4 65.6167 12.4Z" fill="black"/>
<path d="M76.0298 22.2C74.6965 22.2 73.5831 21.8933 72.6898 21.28C71.8098 20.6667 71.1498 19.8133 70.7098 18.72C70.2698 17.6133 70.0498 16.32 70.0498 14.84C70.0498 13.3867 70.2765 12.1133 70.7298 11.02C71.1831 9.91334 71.8565 9.05334 72.7498 8.44C73.6431 7.82667 74.7498 7.52 76.0698 7.52C76.9631 7.52 77.7031 7.62667 78.2898 7.84C78.8898 8.05334 79.3365 8.33334 79.6298 8.68C79.9365 9.02667 80.0898 9.41334 80.0898 9.84C80.0898 10.3067 79.9031 10.7 79.5298 11.02C79.1565 11.3267 78.6031 11.48 77.8698 11.48C77.8698 11.04 77.8098 10.6133 77.6898 10.2C77.5698 9.77334 77.3698 9.42667 77.0898 9.16C76.8098 8.88 76.4165 8.74 75.9098 8.74C75.2031 8.74 74.6431 8.98667 74.2298 9.48C73.8165 9.96 73.5165 10.6533 73.3298 11.56C73.1565 12.4667 73.0698 13.56 73.0698 14.84C73.0698 16.1467 73.1765 17.24 73.3898 18.12C73.6165 19 73.9831 19.66 74.4898 20.1C74.9965 20.5267 75.6631 20.74 76.4898 20.74C77.0898 20.74 77.5965 20.6467 78.0098 20.46C78.4365 20.26 78.7898 20.0133 79.0698 19.72C79.3631 19.4133 79.6098 19.1133 79.8098 18.82C79.8898 18.9 79.9565 19.02 80.0098 19.18C80.0631 19.3267 80.0898 19.4733 80.0898 19.62C80.0898 19.8867 80.0231 20.1733 79.8898 20.48C79.7565 20.7733 79.5298 21.0533 79.2098 21.32C78.9031 21.5733 78.4898 21.7867 77.9698 21.96C77.4631 22.12 76.8165 22.2 76.0298 22.2Z" fill="black"/>
<path d="M96.0521 11.14C95.4827 11.14 95.0161 11.07 94.6521 10.93C94.2974 10.7807 94.0314 10.5893 93.8541 10.356C93.6861 10.1133 93.6021 9.85201 93.6021 9.57201C93.6021 9.30135 93.6861 9.08668 93.8541 8.92801C94.0314 8.76935 94.2507 8.69001 94.5121 8.69001C94.5121 9.00735 94.5727 9.29668 94.6941 9.55801C94.8154 9.81935 94.9881 10.0247 95.2121 10.174C95.4454 10.3233 95.7254 10.398 96.0521 10.398C96.3507 10.398 96.6261 10.328 96.8781 10.188C97.1301 10.0387 97.3307 9.80535 97.4801 9.48801C97.6387 9.17068 97.7181 8.74601 97.7181 8.21401C97.7181 7.78468 97.6387 7.41601 97.4801 7.10801C97.3307 6.80001 97.1021 6.56201 96.7941 6.39401C96.4954 6.22601 96.1267 6.14201 95.6881 6.14201H95.1701V5.47001H95.6881C96.0427 5.47001 96.3507 5.38601 96.6121 5.21801C96.8734 5.04068 97.0741 4.78868 97.2141 4.46201C97.3541 4.13535 97.4241 3.74801 97.4241 3.30001C97.4241 2.74935 97.3214 2.32001 97.1161 2.01201C96.9201 1.70401 96.6074 1.55001 96.1781 1.55001C95.8421 1.55001 95.5761 1.64335 95.3801 1.83001C95.1934 2.01668 95.0581 2.26401 94.9741 2.57201C94.8994 2.87068 94.8621 3.20668 94.8621 3.58001C94.5821 3.58001 94.3347 3.51935 94.1201 3.39801C93.9054 3.27668 93.7981 3.05268 93.7981 2.72601C93.7981 2.38068 93.8914 2.06801 94.0781 1.78801C94.2647 1.50801 94.5401 1.28401 94.9041 1.11601C95.2681 0.948014 95.7161 0.864014 96.2481 0.864014C96.9854 0.864014 97.5827 1.06001 98.0401 1.45201C98.5067 1.84401 98.7401 2.40868 98.7401 3.14601C98.7401 3.56601 98.6561 3.94868 98.4881 4.29401C98.3294 4.63935 98.1101 4.93335 97.8301 5.17601C97.5594 5.41868 97.2467 5.59135 96.8921 5.69401C97.1254 5.73135 97.3681 5.80135 97.6201 5.90401C97.8814 5.99735 98.1147 6.14201 98.3201 6.33801C98.5347 6.52468 98.7074 6.77201 98.8381 7.08001C98.9687 7.38801 99.0341 7.77068 99.0341 8.22801C99.0341 8.76001 98.9454 9.21735 98.7681 9.60001C98.5907 9.97335 98.3574 10.272 98.0681 10.496C97.7787 10.72 97.4567 10.8833 97.1021 10.986C96.7567 11.0887 96.4067 11.14 96.0521 11.14Z" fill="#F2994A"/>
<path d="M89.308 24.696V23.674H92.416V24.696H89.308Z" fill="#2D9CDB"/>
<path d="M96.2051 28.14C95.6731 28.14 95.1924 27.9673 94.7631 27.622C94.3431 27.2767 94.0117 26.7353 93.7691 25.998C93.5264 25.2607 93.4051 24.3133 93.4051 23.156C93.4051 22.3627 93.4657 21.644 93.5871 21C93.7177 20.3467 93.9091 19.7867 94.1611 19.32C94.4131 18.8533 94.7351 18.494 95.1271 18.242C95.5191 17.99 95.9811 17.864 96.5131 17.864C96.9704 17.864 97.3484 17.934 97.6471 18.074C97.9457 18.214 98.1697 18.396 98.3191 18.62C98.4777 18.844 98.5571 19.082 98.5571 19.334C98.5571 19.5953 98.4731 19.796 98.3051 19.936C98.1371 20.076 97.8944 20.146 97.5771 20.146C97.5771 19.8287 97.5397 19.5487 97.4651 19.306C97.3997 19.0633 97.2831 18.872 97.1151 18.732C96.9564 18.592 96.7464 18.522 96.4851 18.522C96.1117 18.522 95.7944 18.6807 95.5331 18.998C95.2811 19.306 95.0851 19.768 94.9451 20.384C94.8144 21 94.7351 21.7653 94.7071 22.68C94.8377 22.5587 94.9824 22.442 95.1411 22.33C95.3091 22.2087 95.5004 22.1153 95.7151 22.05C95.9297 21.9753 96.1677 21.938 96.4291 21.938C97.1477 21.938 97.7217 22.1947 98.1511 22.708C98.5897 23.212 98.8091 23.9073 98.8091 24.794C98.8091 25.4473 98.7064 26.026 98.5011 26.53C98.2957 27.034 97.9971 27.4307 97.6051 27.72C97.2224 28 96.7557 28.14 96.2051 28.14ZM96.2471 27.412C96.5177 27.412 96.7511 27.328 96.9471 27.16C97.1431 26.9827 97.2877 26.712 97.3811 26.348C97.4744 25.9747 97.5211 25.5033 97.5211 24.934C97.5211 24.3927 97.4697 23.954 97.3671 23.618C97.2644 23.2727 97.1151 23.0207 96.9191 22.862C96.7231 22.7033 96.4757 22.624 96.1771 22.624C95.9437 22.624 95.7337 22.666 95.5471 22.75C95.3697 22.834 95.2064 22.9367 95.0571 23.058C94.9171 23.1793 94.7957 23.3053 94.6931 23.436C94.7024 24.1173 94.7444 24.71 94.8191 25.214C94.8937 25.718 94.9964 26.1333 95.1271 26.46C95.2577 26.7867 95.4164 27.0293 95.6031 27.188C95.7991 27.3373 96.0137 27.412 96.2471 27.412Z" fill="#2D9CDB"/>
<defs>
<clipPath id="clip0_17_388">
<rect width="37" height="20" fill="white" transform="translate(0 4)"/>
</clipPath>
</defs>
</svg>
