<svg width="46" height="46" viewBox="0 0 46 46" fill="none" xmlns="http://www.w3.org/2000/svg">
<path d="M23.0001 0C10.2976 0 0 10.3407 0 23.0963C0 34.5366 8.292 44.011 19.1642 45.8457V27.9148H13.6159V21.4622H19.1642V16.7043C19.1642 11.1838 22.5219 8.17541 27.4268 8.17541C29.776 8.17541 31.7948 8.35119 32.3808 8.42861V14.199L28.9789 14.2007C26.3121 14.2007 25.7979 15.473 25.7979 17.3407V21.4589H32.1613L31.3314 27.9115H25.7979V46C37.1776 44.6092 46 34.8934 46 23.0897C46 10.3407 35.7024 0 23.0001 0Z" fill="#3E6EC7"/>
<path d="M23.0001 0C10.2976 0 0 10.3407 0 23.0963C0 34.5366 8.292 44.011 19.1642 45.8457V27.9148H13.6159V21.4622H19.1642V16.7043C19.1642 11.1838 22.5219 8.17541 27.4268 8.17541C29.776 8.17541 31.7948 8.35119 32.3808 8.42861V14.199L28.9789 14.2007C26.3121 14.2007 25.7979 15.473 25.7979 17.3407V21.4589H32.1613L31.3314 27.9115H25.7979V46C37.1776 44.6092 46 34.8934 46 23.0897C46 10.3407 35.7024 0 23.0001 0Z" fill="url(#paint0_linear_907_253)"/>
<defs>
<linearGradient id="paint0_linear_907_253" x1="23" y1="0" x2="23" y2="46" gradientUnits="userSpaceOnUse">
<stop stop-color="#5DAAEA"/>
<stop offset="1" stop-color="#75B9E9" stop-opacity="0"/>
</linearGradient>
</defs>
</svg>
