<svg width="40" height="40" viewBox="0 0 40 40" fill="none" xmlns="http://www.w3.org/2000/svg">
<path d="M8.86484 24.1723L7.4725 29.3701L2.38352 29.4778C0.862656 26.6569 0 23.4295 0 19.9998C0 16.6833 0.806562 13.5558 2.23625 10.802H2.23734L6.76797 11.6326L8.75265 16.1361C8.33726 17.3471 8.11086 18.6471 8.11086 19.9998C8.11101 21.4679 8.37695 22.8746 8.86484 24.1723Z" fill="#FBBB00"/>
<path d="M39.6506 16.2635C39.8802 17.4734 40 18.7228 40 19.9998C40 21.4317 39.8495 22.8284 39.5627 24.1757C38.5891 28.7603 36.0451 32.7636 32.521 35.5965L32.5199 35.5954L26.8133 35.3043L26.0056 30.2625C28.3441 28.8911 30.1716 26.7449 31.1342 24.1757H20.4397V16.2635H31.2902H39.6506Z" fill="#518EF8"/>
<path d="M32.5197 35.5957L32.5208 35.5968C29.0934 38.3517 24.7394 40 19.9999 40C12.3834 40 5.76147 35.7429 2.38342 29.4781L8.86475 24.1726C10.5537 28.6803 14.9021 31.8891 19.9999 31.8891C22.1911 31.8891 24.2439 31.2968 26.0054 30.2627L32.5197 35.5957Z" fill="#28B446"/>
<path d="M32.7659 4.60438L26.2868 9.90875C24.4637 8.76922 22.3087 8.11094 20 8.11094C14.7868 8.11094 10.3571 11.467 8.75269 16.1363L2.2373 10.8022H2.23621C5.5648 4.38461 12.2703 0 20 0C24.8527 0 29.3022 1.72859 32.7659 4.60438Z" fill="#F14336"/>
</svg>
