<?xml version="1.0" encoding="utf-8"?><svg viewBox="0 0 100 40" xmlns="http://www.w3.org/2000/svg" xmlns:xlink="http://www.w3.org/1999/xlink"><style>:root>svg{display:none}:root>svg:target{display:block}</style><svg fill="none" viewBox="0 0 11 20" id="facebook" xmlns="http://www.w3.org/2000/svg"><path d="M9.12 3.32H11V.14A26.111 26.111 0 0 0 8.26 0C5.54 0 3.68 1.66 3.68 4.7v2.62H.61v3.56h3.07V20h3.68v-9.12h3.06l.46-3.56H7.36V5.05c0-1.05.28-1.73 1.76-1.73Z" fill="#F5EFDB"/></svg><svg fill="none" viewBox="0 0 20 20" id="instagram" xmlns="http://www.w3.org/2000/svg"><path d="M15.34 3.46a1.2 1.2 0 1 0 0 2.4 1.2 1.2 0 0 0 0-2.4Zm4.6 2.42a7.588 7.588 0 0 0-.46-2.43 4.94 4.94 0 0 0-1.16-1.77A4.7 4.7 0 0 0 16.55.53a7.3 7.3 0 0 0-2.43-.47C13.06 0 12.72 0 10 0S6.94 0 5.88.06a7.3 7.3 0 0 0-2.43.47 4.78 4.78 0 0 0-1.77 1.15A4.7 4.7 0 0 0 .53 3.45a7.3 7.3 0 0 0-.47 2.43C0 6.94 0 7.28 0 10s0 3.06.06 4.12a7.3 7.3 0 0 0 .47 2.43 4.7 4.7 0 0 0 1.15 1.77 4.78 4.78 0 0 0 1.77 1.15 7.3 7.3 0 0 0 2.43.47C6.94 20 7.28 20 10 20s3.06 0 4.12-.06a7.3 7.3 0 0 0 2.43-.47 4.7 4.7 0 0 0 1.77-1.15 4.85 4.85 0 0 0 1.16-1.77c.285-.78.44-1.6.46-2.43 0-1.06.06-1.4.06-4.12s0-3.06-.06-4.12ZM18.14 14a5.61 5.61 0 0 1-.34 1.86 3.06 3.06 0 0 1-.75 1.15c-.324.33-.717.586-1.15.75a5.61 5.61 0 0 1-1.86.34c-1 .05-1.37.06-4 .06s-3 0-4-.06a5.73 5.73 0 0 1-1.94-.3 3.27 3.27 0 0 1-1.1-.75 3 3 0 0 1-.74-1.15 5.54 5.54 0 0 1-.4-1.9c0-1-.06-1.37-.06-4s0-3 .06-4a5.54 5.54 0 0 1 .35-1.9A3 3 0 0 1 3 3a3.14 3.14 0 0 1 1.1-.8A5.73 5.73 0 0 1 6 1.86c1 0 1.37-.06 4-.06s3 0 4 .06a5.61 5.61 0 0 1 1.86.34 3.06 3.06 0 0 1 1.19.8c.328.307.584.683.75 1.1.222.609.337 1.252.34 1.9.05 1 .06 1.37.06 4s-.01 3-.06 4ZM10 4.87A5.13 5.13 0 1 0 15.14 10 5.12 5.12 0 0 0 10 4.87Zm0 8.46a3.33 3.33 0 1 1 0-6.66 3.33 3.33 0 0 1 0 6.66Z" fill="#F5EFDB"/></svg><svg fill="none" viewBox="0 0 47 40" id="quote" xmlns="http://www.w3.org/2000/svg"><path d="M12.914 22.857c2.402 0 4.304.802 5.706 2.406 1.501 1.504 2.252 3.509 2.252 6.015 0 2.707-.9 4.862-2.703 6.466C16.468 39.248 14.115 40 11.112 40c-3.504 0-6.257-1.353-8.259-4.06C.951 33.233 0 29.373 0 24.36c0-4.51 1.001-8.67 3.003-12.48C5.005 7.97 8.01 4.06 12.013.15c.1-.1.25-.15.45-.15.3 0 .55.15.751.451.2.3.2.551 0 .752C8.31 6.216 5.856 12.13 5.856 18.947c0 2.807.5 4.863 1.502 6.166.9-1.504 2.753-2.256 5.556-2.256Zm26.128 0c2.402 0 4.304.802 5.706 2.406C46.249 26.767 47 28.772 47 31.278c0 2.707-.901 4.862-2.703 6.466C42.595 39.248 40.243 40 37.24 40c-3.504 0-6.257-1.353-8.26-4.06-1.901-2.707-2.852-6.567-2.852-11.58 0-4.51 1-8.67 3.003-12.48 2.002-3.91 5.005-7.82 9.01-11.73.1-.1.25-.15.45-.15.3 0 .55.15.75.451.201.3.201.551 0 .752-4.904 5.013-7.357 10.927-7.357 17.744 0 2.807.5 4.863 1.502 6.166.9-1.504 2.753-2.256 5.556-2.256Z" fill="#fff"/></svg><svg fill="none" viewBox="0 0 24 24" id="s-bars" xmlns="http://www.w3.org/2000/svg"><path d="M3 8h18a1 1 0 1 0 0-2H3a1 1 0 0 0 0 2Zm18 8H3a1 1 0 0 0 0 2h18a1 1 0 0 0 0-2Zm0-5H3a1 1 0 0 0 0 2h18a1 1 0 0 0 0-2Z" fill="#000"/></svg><svg fill="none" viewBox="0 0 37 20" id="s-cloud" xmlns="http://www.w3.org/2000/svg"><path d="M31.45 5.918C30.25 2.493 26.926.134 23.215.134c-3.17 0-6.146 1.75-7.654 4.452h-.038a6.918 6.918 0 0 0-7.19 3.235c-2.049.076-3.75 1.485-4.213 3.387-2.242.229-3.982 2.055-3.982 4.339 0 2.398 1.972 4.338 4.407 4.338h25.087c3.98 0 7.228-3.196 7.228-7.116 0-3.235-2.242-6.051-5.412-6.85Zm-1.818 12.179h-6.339a5.54 5.54 0 0 0 1.508-3.806c0-2.55-1.701-4.72-4.175-5.404a6.833 6.833 0 0 0-3.324-3.692 6.917 6.917 0 0 1 5.875-3.273c3.093 0 5.837 2.055 6.649 4.986a.86.86 0 0 0 .734.647c2.59.456 4.445 2.626 4.445 5.213.039 2.97-2.397 5.329-5.373 5.329ZM4.546 13.035h.27a.786.786 0 0 0 .696-.228.808.808 0 0 0 .31-.647 2.698 2.698 0 0 1 2.705-2.55h.27c.387.038.735-.152.929-.533a5.042 5.042 0 0 1 4.522-2.854 5.033 5.033 0 0 1 4.832 3.615.86.86 0 0 0 .734.647c1.856.305 3.209 1.903 3.209 3.73 0 2.093-1.74 3.805-3.866 3.805H4.585c-1.43 0-2.59-1.141-2.59-2.55-.039-1.293 1.12-2.435 2.55-2.435Z" fill="#000"/></svg><svg fill="none" viewBox="0 0 20 20" id="s-insta" xmlns="http://www.w3.org/2000/svg"><path d="M15.34 3.46a1.2 1.2 0 1 0 0 2.4 1.2 1.2 0 0 0 0-2.4Zm4.6 2.42a7.588 7.588 0 0 0-.46-2.43 4.94 4.94 0 0 0-1.16-1.77A4.7 4.7 0 0 0 16.55.53a7.3 7.3 0 0 0-2.43-.47C13.06 0 12.72 0 10 0S6.94 0 5.88.06a7.3 7.3 0 0 0-2.43.47 4.78 4.78 0 0 0-1.77 1.15A4.7 4.7 0 0 0 .53 3.45a7.3 7.3 0 0 0-.47 2.43C0 6.94 0 7.28 0 10s0 3.06.06 4.12a7.3 7.3 0 0 0 .47 2.43 4.7 4.7 0 0 0 1.15 1.77 4.78 4.78 0 0 0 1.77 1.15 7.3 7.3 0 0 0 2.43.47C6.94 20 7.28 20 10 20s3.06 0 4.12-.06a7.3 7.3 0 0 0 2.43-.47 4.7 4.7 0 0 0 1.77-1.15 4.85 4.85 0 0 0 1.16-1.77c.285-.78.44-1.6.46-2.43 0-1.06.06-1.4.06-4.12s0-3.06-.06-4.12ZM18.14 14a5.61 5.61 0 0 1-.34 1.86 3.06 3.06 0 0 1-.75 1.15c-.324.33-.717.586-1.15.75a5.61 5.61 0 0 1-1.86.34c-1 .05-1.37.06-4 .06s-3 0-4-.06a5.73 5.73 0 0 1-1.94-.3 3.27 3.27 0 0 1-1.1-.75 3 3 0 0 1-.74-1.15 5.54 5.54 0 0 1-.4-1.9c0-1-.06-1.37-.06-4s0-3 .06-4a5.54 5.54 0 0 1 .35-1.9A3 3 0 0 1 3 3a3.14 3.14 0 0 1 1.1-.8A5.73 5.73 0 0 1 6 1.86c1 0 1.37-.06 4-.06s3 0 4 .06a5.61 5.61 0 0 1 1.86.34 3.06 3.06 0 0 1 1.19.8c.328.307.584.683.75 1.1.222.609.337 1.252.34 1.9.05 1 .06 1.37.06 4s-.01 3-.06 4ZM10 4.87A5.13 5.13 0 1 0 15.14 10 5.12 5.12 0 0 0 10 4.87Zm0 8.46a3.33 3.33 0 1 1 0-6.66 3.33 3.33 0 0 1 0 6.66Z" fill="#000"/></svg><svg fill="none" viewBox="0 0 24 24" id="s-linkedin-alt" xmlns="http://www.w3.org/2000/svg"><path d="M17.5 8.999c-.895 0-1.777.221-2.566.644A.999.999 0 0 0 14 9h-4a1 1 0 0 0-1 1v12a1 1 0 0 0 1 1h4a.997.997 0 0 0 1-1v-5.5a1 1 0 1 1 2 0v5.5a1 1 0 0 0 1 1h4a.997.997 0 0 0 1-1v-7.5a5.507 5.507 0 0 0-5.5-5.5Zm3.5 12h-2v-4.5a3 3 0 0 0-6 0v4.5h-2v-10h2v.703a1 1 0 0 0 1.781.625A3.483 3.483 0 0 1 21 14.499v6.5Zm-14-12H3a1 1 0 0 0-1 1v12a1 1 0 0 0 1 1h4a.998.998 0 0 0 1-1v-12a1 1 0 0 0-1-1Zm-1 12H4v-10h2v10ZM5.015 1.542a3.233 3.233 0 1 0-.057 6.457h.028a3.234 3.234 0 1 0 .029-6.457Zm-.029 4.457h-.028a1.222 1.222 0 0 1-1.37-1.229c0-.746.56-1.228 1.427-1.228A1.234 1.234 0 0 1 6.41 4.77C6.411 5.517 5.851 6 4.986 6Z" fill="#000"/></svg><svg fill="none" viewBox="0 0 21 20" id="s-phone" xmlns="http://www.w3.org/2000/svg"><path d="M17.91 11c-.22 0-.45-.07-.67-.12a9.435 9.435 0 0 1-1.31-.39 2 2 0 0 0-2.48 1l-.22.45a12.477 12.477 0 0 1-2.67-2 12.829 12.829 0 0 1-2-2.66L9 7a2 2 0 0 0 1-2.48c-.159-.427-.29-.865-.39-1.31-.05-.23-.09-.45-.12-.68a3 3 0 0 0-3-2.49h-3a3 3 0 0 0-2.24 1 3 3 0 0 0-.73 2.39A19 19 0 0 0 17 19.91c.13.01.26.01.39 0a3 3 0 0 0 3-3v-3A3 3 0 0 0 17.91 11Zm.49 6a1.002 1.002 0 0 1-1.15 1 17.12 17.12 0 0 1-9.87-4.85 17.14 17.14 0 0 1-4.84-9.93 1 1 0 0 1 .25-.82 1 1 0 0 1 .74-.34h3a1 1 0 0 1 1 .79c.04.273.09.543.15.81.115.527.27 1.045.46 1.55l-1.4.65a1 1 0 0 0-.49 1.33 14.49 14.49 0 0 0 7 7 1 1 0 0 0 .76 0 1 1 0 0 0 .56-.52l.63-1.4a13.68 13.68 0 0 0 1.58.46c.26.06.54.11.81.15a1 1 0 0 1 .78 1L18.4 17Z" fill="#000"/></svg><svg fill="none" viewBox="0 0 24 24" id="s-search" xmlns="http://www.w3.org/2000/svg"><circle cx="10.5" cy="10.5" r="6.5" stroke="#000" stroke-width="2"/><path d="m16.625 14.22-.781-.626-1.25 1.562.781.625 1.25-1.562Zm3.75 5.56a1 1 0 1 0 1.25-1.56l-1.25 1.56Zm-5-4 5 4 1.25-1.56-5-4-1.25 1.56Z" fill="#000"/></svg><svg fill="none" viewBox="0 0 10 18" id="s-slider-arrow_4" xmlns="http://www.w3.org/2000/svg"><path d="m1 1 8 7.758L1 17" stroke="#fff" stroke-linecap="round"/></svg><svg fill="none" viewBox="0 0 100 29" id="s-weather" xmlns="http://www.w3.org/2000/svg"><g clip-path="url(#ka)"><path d="M31.45 9.918c-1.2-3.425-4.523-5.784-8.234-5.784-3.17 0-6.146 1.75-7.654 4.452h-.038a6.918 6.918 0 0 0-7.19 3.235c-2.049.077-3.75 1.485-4.213 3.387-2.242.229-3.982 2.055-3.982 4.339 0 2.398 1.972 4.338 4.407 4.338h25.087c3.98 0 7.228-3.196 7.228-7.116 0-3.235-2.242-6.051-5.412-6.85Zm-1.818 12.179h-6.339a5.54 5.54 0 0 0 1.508-3.806c0-2.55-1.701-4.72-4.175-5.404a6.833 6.833 0 0 0-3.324-3.692 6.917 6.917 0 0 1 5.875-3.273c3.093 0 5.837 2.055 6.649 4.986a.86.86 0 0 0 .734.647c2.59.456 4.445 2.626 4.445 5.213.039 2.97-2.397 5.329-5.373 5.329ZM4.546 17.035h.27a.786.786 0 0 0 .696-.228.808.808 0 0 0 .31-.647 2.698 2.698 0 0 1 2.705-2.55h.27c.387.038.735-.152.929-.533a5.042 5.042 0 0 1 4.522-2.854 5.034 5.034 0 0 1 4.832 3.615.86.86 0 0 0 .734.647c1.856.305 3.209 1.903 3.209 3.73 0 2.093-1.74 3.805-3.866 3.805H4.585c-1.43 0-2.59-1.141-2.59-2.55-.039-1.293 1.12-2.435 2.55-2.435Z" fill="#000"/></g><path d="M47.44 17.54v-1.98h4.54v1.98h-4.54ZM53.97 22v-1h1.28c.227 0 .42-.033.58-.1a.855.855 0 0 0 .38-.4c.094-.2.14-.48.14-.84V9.6c-.28.387-.553.727-.82 1.02-.253.293-.5.52-.74.68a1.2 1.2 0 0 1-.7.24c-.266 0-.5-.127-.7-.38-.2-.253-.3-.593-.3-1.02.227-.067.474-.153.74-.26.267-.12.56-.273.88-.46.334-.2.687-.46 1.06-.78l1.22-1h2v12.02c0 .307.04.56.12.76.08.2.2.347.36.44.16.093.367.14.62.14h1.1v1h-7.22ZM65.597 13.46c-.827 0-1.48-.28-1.96-.84-.467-.573-.7-1.307-.7-2.2 0-.6.106-1.127.32-1.58.226-.453.533-.807.92-1.06.4-.267.873-.4 1.42-.4.546 0 1.02.133 1.42.4.4.253.706.607.92 1.06.226.453.34.98.34 1.58a3.57 3.57 0 0 1-.34 1.58 2.6 2.6 0 0 1-.92 1.08c-.4.253-.874.38-1.42.38Zm.02-1.06c.493 0 .866-.187 1.12-.56.266-.373.4-.86.4-1.46 0-.587-.134-1.06-.4-1.42-.267-.36-.64-.54-1.12-.54-.48 0-.86.18-1.14.54-.267.36-.4.84-.4 1.44 0 .573.133 1.053.4 1.44.28.373.66.56 1.14.56ZM76.03 22.2c-1.334 0-2.447-.307-3.34-.92-.88-.613-1.54-1.467-1.98-2.56-.44-1.107-.66-2.4-.66-3.88 0-1.453.227-2.727.68-3.82.453-1.107 1.126-1.967 2.02-2.58.893-.613 2-.92 3.32-.92.893 0 1.633.107 2.22.32.6.213 1.046.493 1.34.84.306.347.46.733.46 1.16 0 .467-.187.86-.56 1.18-.374.307-.927.46-1.66.46 0-.44-.06-.867-.18-1.28-.12-.427-.32-.773-.6-1.04-.28-.28-.674-.42-1.18-.42-.707 0-1.267.247-1.68.74-.413.48-.714 1.173-.9 2.08-.174.907-.26 2-.26 3.28 0 1.307.107 2.4.32 3.28.227.88.593 1.54 1.1 1.98.507.427 1.173.64 2 .64.6 0 1.107-.093 1.52-.28.426-.2.78-.447 1.06-.74.293-.307.54-.607.74-.9.08.08.147.2.2.36.053.147.08.293.08.44 0 .267-.067.553-.2.86-.133.293-.36.573-.68.84-.307.253-.72.467-1.24.64-.507.16-1.153.24-1.94.24Z" fill="#000"/><path d="M96.052 11.14c-.57 0-1.036-.07-1.4-.21-.355-.15-.62-.34-.798-.574a1.351 1.351 0 0 1-.252-.784c0-.27.084-.485.252-.644a.95.95 0 0 1 .658-.238c0 .317.06.607.182.868.121.261.294.467.518.616.233.15.513.224.84.224.299 0 .574-.07.826-.21.252-.15.453-.383.602-.7.159-.317.238-.742.238-1.274 0-.43-.08-.798-.238-1.106a1.586 1.586 0 0 0-.686-.714c-.299-.168-.667-.252-1.106-.252h-.518V5.47h.518c.355 0 .663-.084.924-.252a1.69 1.69 0 0 0 .602-.756c.14-.327.21-.714.21-1.162 0-.55-.103-.98-.308-1.288-.196-.308-.509-.462-.938-.462-.336 0-.602.093-.798.28a1.631 1.631 0 0 0-.406.742 4.162 4.162 0 0 0-.112 1.008c-.28 0-.527-.06-.742-.182-.215-.121-.322-.345-.322-.672 0-.345.093-.658.28-.938.187-.28.462-.504.826-.672.364-.168.812-.252 1.344-.252.737 0 1.335.196 1.792.588.467.392.7.957.7 1.694 0 .42-.084.803-.252 1.148-.159.345-.378.64-.658.882-.27.243-.583.415-.938.518.233.037.476.107.728.21.261.093.495.238.7.434.215.187.387.434.518.742.13.308.196.69.196 1.148 0 .532-.089.99-.266 1.372-.177.373-.41.672-.7.896-.29.224-.611.387-.966.49a3.666 3.666 0 0 1-1.05.154Z" fill="#F2994A"/><path d="M89.308 24.696v-1.022h3.108v1.022h-3.108ZM96.205 28.14a2.243 2.243 0 0 1-1.442-.518c-.42-.345-.751-.887-.994-1.624-.243-.737-.364-1.685-.364-2.842 0-.793.06-1.512.182-2.156.13-.653.322-1.213.574-1.68.252-.467.574-.826.966-1.078.392-.252.854-.378 1.386-.378.457 0 .835.07 1.134.21.299.14.523.322.672.546.159.224.238.462.238.714 0 .261-.084.462-.252.602-.168.14-.41.21-.728.21 0-.317-.037-.597-.112-.84a1.093 1.093 0 0 0-.35-.574c-.159-.14-.369-.21-.63-.21-.373 0-.69.159-.952.476-.252.308-.448.77-.588 1.386-.13.616-.21 1.381-.238 2.296.13-.121.275-.238.434-.35.168-.121.36-.215.574-.28a2.16 2.16 0 0 1 .714-.112c.719 0 1.293.257 1.722.77.439.504.658 1.2.658 2.086 0 .653-.103 1.232-.308 1.736-.205.504-.504.9-.896 1.19-.383.28-.85.42-1.4.42Zm.042-.728c.27 0 .504-.084.7-.252.196-.177.34-.448.434-.812.093-.373.14-.845.14-1.414 0-.541-.051-.98-.154-1.316-.103-.345-.252-.597-.448-.756-.196-.159-.443-.238-.742-.238-.233 0-.443.042-.63.126-.177.084-.34.187-.49.308-.14.121-.261.247-.364.378.01.681.051 1.274.126 1.778.075.504.177.92.308 1.246.13.327.29.57.476.728.196.15.41.224.644.224Z" fill="#2D9CDB"/><defs><clipPath id="ka"><path fill="#fff" transform="translate(0 4)" d="M0 0h37v20H0z"/></clipPath></defs></svg><svg fill="none" viewBox="0 0 14 9" id="select-arrow" xmlns="http://www.w3.org/2000/svg"><path d="m7.576 8.488 5.433-5.922a1.054 1.054 0 0 0 0-1.455c-.388-.415-.97-.415-1.358 0L6.8 6.202l-4.85-5.09C1.56.695.98.695.59 1.111a.976.976 0 0 0-.291.727c0 .311.097.52.291.727l5.433 5.922c.485.416 1.067.416 1.552 0-.097 0-.097 0 0 0Z" fill="#AAA"/></svg><svg fill="none" viewBox="0 0 23 20" id="twitter" xmlns="http://www.w3.org/2000/svg"><path d="M22.991 1.95a1 1 0 0 0-1.51-.86 7.48 7.48 0 0 1-1.873.794A5.152 5.152 0 0 0 16.233.642a5.233 5.233 0 0 0-5.223 5.063 11.032 11.032 0 0 1-6.814-3.924 1.011 1.011 0 0 0-.857-.365.998.998 0 0 0-.785.5 5.275 5.275 0 0 0-.242 4.769l-.002.002a1.041 1.041 0 0 0-.496.888c-.001.147.007.294.027.44a5.185 5.185 0 0 0 1.568 3.312.999.999 0 0 0-.066.77 5.204 5.204 0 0 0 2.362 2.921 7.465 7.465 0 0 1-3.59.449A1 1 0 0 0 1.45 17.3a12.942 12.942 0 0 0 7.01 2.061 12.788 12.788 0 0 0 12.465-9.363c.353-1.183.533-2.412.535-3.646l-.001-.2a5.77 5.77 0 0 0 1.532-4.202Zm-3.306 3.212a.995.995 0 0 0-.234.702c.01.165.009.331.009.488a10.826 10.826 0 0 1-.454 3.08 10.685 10.685 0 0 1-10.546 7.93c-.86 0-1.715-.101-2.55-.301a9.48 9.48 0 0 0 2.942-1.564 1.001 1.001 0 0 0-.602-1.786 3.208 3.208 0 0 1-2.214-.935c.15-.028.298-.063.445-.105a1 1 0 0 0-.08-1.944 3.197 3.197 0 0 1-2.25-1.725c.181.025.363.04.545.046a1.021 1.021 0 0 0 .984-.696 1 1 0 0 0-.4-1.137A3.196 3.196 0 0 1 3.86 4.344a13.014 13.014 0 0 0 8.21 3.48 1.02 1.02 0 0 0 .817-.36 1 1 0 0 0 .206-.867 3.164 3.164 0 0 1-.087-.729 3.23 3.23 0 0 1 4.506-2.962c.403.176.766.433 1.065.756a.993.993 0 0 0 .921.298 9.27 9.27 0 0 0 1.212-.322 6.679 6.679 0 0 1-1.026 1.524Z" fill="#F5EFDB"/></svg></svg>